REM GENRE Game
REM DATE 2008
REM DISCID 6C074909
REM COMMENT "ExactAudioCopy v0.95b4"
PERFORMER "∏≠§Î«m«p"
TITLE "«´«Ë«”«≥«≈«Â-Vocal CD-"
FILE "∏≠§Î«m«p - «´«Ë«”«≥«≈«Â-Vocal CD-.ape" WAVE
  TRACK 01 AUDIO
    TITLE "Santuario («´«Ë«”«≥«≈«ÂOP«¬∆„«⁄ «”«Ë«Ê«·∆„«≈)"
    PERFORMER "∏≠§Î«m«p"
    FLAGS DCP
    INDEX 01 00:00:00
  TRACK 02 AUDIO
    TITLE "Clepsydra°]«´«Ë«”«≥«≈«ÂOP«¬∆„«⁄°^"
    PERFORMER "∏≠§Î«m«p"
    FLAGS DCP
    INDEX 00 00:33:73
    INDEX 01 00:36:03
  TRACK 03 AUDIO
    TITLE "¢∞¢≤µf•ÿ«U±s¶˜« Éˆ°]«´«Ë«”«≥«≈«ÂED«¬∆„«⁄°^"
    PERFORMER "∏≠§Î«m«p"
    FLAGS DCP
    INDEX 00 04:28:43
    INDEX 01 04:30:41
  TRACK 04 AUDIO
    TITLE "Santuario-Clepsydra_remix"
    PERFORMER "∏≠§Î«m«p"
    FLAGS DCP
    INDEX 00 08:17:19
    INDEX 01 08:19:18
  TRACK 05 AUDIO
    TITLE "Aphrodisiac°„¥Aì÷°„"
    PERFORMER "∏≠§Î«m«p"
    FLAGS DCP
    INDEX 00 12:42:19
    INDEX 01 12:44:23
  TRACK 06 AUDIO
    TITLE "Clepsydra°„instrumental°„"
    PERFORMER "∏≠§Î«m«p"
    FLAGS DCP
    INDEX 00 16:05:51
    INDEX 01 16:07:53
  TRACK 07 AUDIO
    TITLE "13µf•ÿ«U±s¶˜« Éˆ°„instrumental°„"
    PERFORMER "∏≠§Î«m«p"
    FLAGS DCP
    INDEX 00 20:00:19
    INDEX 01 20:02:17
  TRACK 08 AUDIO
    TITLE "Clepsydra_remix°„instrumental°„"
    PERFORMER "∏≠§Î«m«p"
    FLAGS DCP
    INDEX 00 23:48:63
    INDEX 01 23:50:69
  TRACK 09 AUDIO
    TITLE "Aphrodisiac°„instrumental°„"
    PERFORMER "∏≠§Î«m«p"
    FLAGS DCP
    INDEX 00 27:41:57
    INDEX 01 27:43:60
